<?xml version="1.0"?>
<!--
*************Map created by Simplemaps.com********************		
*************Attribution is highly appreciated!***************
*************http://simplemaps.com****************************

The MIT License (MIT)

Copyright (c) 2020 Pareto Softare, LLC DBA Simplemaps.com

Permission is hereby granted, free of charge, to any person obtaining a copy
of this software and associated documentation files (the "Software"), to deal
in the Software without restriction, including without limitation the rights
to use, copy, modify, merge, publish, distribute, sublicense, and/or sell
copies of the Software, and to permit persons to whom the Software is
furnished to do so, subject to the following conditions:

The above copyright notice and this permission notice shall be included in
all copies or substantial portions of the Software.

THE SOFTWARE IS PROVIDED "AS IS", WITHOUT WARRANTY OF ANY KIND, EXPRESS OR
IMPLIED, INCLUDING BUT NOT LIMITED TO THE WARRANTIES OF MERCHANTABILITY,
FITNESS FOR A PARTICULAR PURPOSE AND NONINFRINGEMENT. IN NO EVENT SHALL THE
AUTHORS OR COPYRIGHT HOLDERS BE LIABLE FOR ANY CLAIM, DAMAGES OR OTHER
LIABILITY, WHETHER IN AN ACTION OF CONTRACT, TORT OR OTHERWISE, ARISING FROM,
OUT OF OR IN CONNECTION WITH THE SOFTWARE OR THE USE OR OTHER DEALINGS IN
THE SOFTWARE.

-->
<svg baseprofile="tiny" fill="#ececec" height="857" stroke="black" stroke-linecap="round" stroke-linejoin="round" stroke-width=".2" version="1.2" viewbox="0 0 2000 857" width="2000" xmlns="http://www.w3.org/2000/svg">

/*INDIA*/
 <path d="M1427.6 308l-2.8 3-0.9 6 5.8 2.4 5.8 3.1 7.8 3.6 7.7 0.9 3.8 3.2 4.3 0.6 6.9 1.5 4.6-0.1 0.1-2.5-1.5-4.1-0.2-2.7 3.1-1.4 1.5 5.1 0.4 1.2 5.5 2.5 3.2-1 4.7 0.4 4.5-0.2-0.5-3.9-2.6-2.1 4.2-0.8 3.9-4.8 5.4-4 4.9 1.5 3.2-2.7 3.6 4-1.2 2.7 6.1 1 1 2.4-1.7 1.2 1.4 3.9-4.2-1.1-6.2 4.4 0.9 3.7-2 5.4 0.3 3.1-1.6 5.3-4.6-1.5 0.9 6.7-1 2.2 1 2.7-2.5 1.5-4.4-10.2-1.5 0-0.3 4.2-3.6-3.4 1.2-3.6 2.4-0.4 1.6-5.4-3.4-1.1-5.1 0.1-5.4-0.9-1.2-4.5-2.7-0.3-4.9-2.8-1.2 4.4 4.6 3.4-3 2.4-0.9 2.3 3.7 1.7-0.3 3.9 2.6 4.8 1.6 5.3-0.5 2.4-3.8-0.1-6.6 1.3 0.9 4.8-2.4 3.8-7.5 4.4-5.3 7.5-3.8 4.1-5 4.2 0.3 2.9-2.6 1.6-4.8 2.3-2.6 0.3-1.2 4.9 1.9 8.4 0.7 5.3-1.9 6.1 0.7 10.9-2.9 0.3-2.3 4.9 1.9 2.2-5.1 1.8-1.7 4.3-2.2 1.9-5.6-6-3.1-9-2.5-6.5-2.2-3-3.4-6.2-2-8-1.4-4-5.9-8.8-3.5-12.5-2.6-8.2-0.8-7.8-1.7-6-7.7 3.9-4-0.8-8.1-7.8 2.4-2.3-1.9-2.5-7.1-5.5 3.2-4.3 12.1 0-1.8-5.5-3.5-3.2-1.4-5-4-2.8 4.9-6.8 6.5 0.5 4.5-6.7 2.2-6.5 3.9-6.5-1-4.6 3.8-3.7-5.1-3.1-2.9-4.4-3.3-5.6 2-2.8 8.5 1.6 5.7-1 3.8-5.4 7.7 7.6 0.8 5.2 3 3.3 0.6 3.3-4.1-0.9 3.2 7.1 6.2 4 8.6 4.5z" id="IN" name="India">
 </path>

/*OMAN*/
 <path class="Oman" d="M 1283.8 394.9 1281.6 390.4 1276.4 379.8 1292.7 373.4 1295.3 360.6 1292.3 356 1292.3 353.4 1293.6 350.8 1293.4 348.2 1295.8 346.9 1294.7 346 1294.7 341.8 1297.5 341.8 1300.5 346.2 1303.8 348.5 1307.9 349.4 1311.3 350.5 1314.2 354.2 1315.9 356.3 1317.9 357.2 1318.1 358.6 1316.4 362.4 1315.7 364.2 1313.5 366.3 1311.8 370.7 1309.3 370.3 1308.3 371.9 1307.6 375.1 1308.7 379.4 1308.2 380.2 1305.7 380.2 1302.4 382.6 1302.1 385.7 1300.9 387.1 1297.4 387 1295.4 388.6 1295.6 391.2 1293 393 1289.9 392.4 1286.3 394.6 1283.8 394.9 Z">
 </path>
 <path class="Oman" d="M 1296.2 336.7 1294.9 334.5 1296.3 332.4 1297 332.9 1296.8 335.6 1296.2 336.7 Z">
 </path>

/*FRANCE*/
 <path class="France" d="M 1035.7 231.4 1034.2 236.3 1031.8 235 1030.5 230.8 1031.4 228.4 1034.6 226 1035.7 231.4 Z">
 </path>
 <path class="France" d="M 1014.4 185 1015.5 185.5 1016.9 185.4 1019.3 187 1026.5 188.2 1024.1 192.4 1023.7 196.9 1022.4 198 1020.1 197.4 1020.3 199 1016.7 202.5 1016.7 205.4 1019.1 204.4 1020.9 207.1 1020.8 208.9 1022.3 211.3 1020.6 213.2 1022.1 218.1 1024.9 218.9 1024.4 221.6 1019.9 225.2 1009.7 223.5 1002.3 225.6 1001.7 229.4 995.8 230.2 990 227.3 988.1 228.7 978.6 225.8 976.6 223.4 979.3 219.6 980.3 207 975.2 200.4 971.5 197.2 963.9 194.8 963.5 190.2 970 188.9 978.3 190.5 976.8 183.4 981.5 186.1 992.9 181.3 994.4 176.2 998.6 174.9 999.4 177.1 1001.6 177.2 1004 179.7 1007.5 182.6 1010 182.1 1014.4 185 Z">
 </path>

/*GERMANY*/
 <path d="M1053.9 158.9l1.4 3.1-1.2 1.7 1.9 2.1 1.5 3.3-0.2 2.2 2.4 3.9-2.2 0.6-1.3-0.7-1.1 1.2-3.5 1.2-1.7 1.6-3.4 1.3 1 1.8 0.7 2.7 2.6 1.5 3 2.6-1.6 2.9-1.7 0.8 1 4.1-0.4 1.1-1.7-1.3-2.4-0.2-3.5 1.1-4.4-0.3-0.6 1.7-2.7-1.7-1.4 0.3-5.5-1.9-1 1.3-4.2 0 0.4-4.5 2.4-4.2-7.2-1.2-2.4-1.6 0.2-2.7-1-1.4 0.4-4.2-1.1-6.5 2.9 0 1.2-2.3 0.9-5.6-0.9-2.1 0.8-1.3 4-0.3 1 1.3 3.1-3-1.3-2.3-0.4-3.4 3.7 0.8 2.9-0.9 0.3 2.3 4.9 1.4 0.1 2.2 4.7-1.2 2.6-1.6 5.6 2.4 2.4 1.9z" id="DE" name="Germany">
 </path>

/*ITALY*/
 <path class="Italy" d="M 1068.2 256.4 1066.5 261.5 1067.4 263.4 1066.5 266.7 1062.3 264.3 1059.6 263.6 1052.1 260.4 1052.6 257.1 1058.8 257.7 1064.2 257 1068.2 256.4 Z">
 </path>
 <path class="Italy" d="M 1034.2 237.4 1037.5 241.9 1037.1 250.4 1034.7 250 1032.6 252.1 1030.6 250.4 1030.1 242.7 1028.8 239.1 1031.7 239.4 1034.2 237.4 Z">
 </path>
 <path class="Italy" d="M 1055.9 203.9 1055.5 207 1056.9 209.7 1052.8 208.7 1048.9 211 1049.3 214.1 1048.8 215.9 1050.7 219.1 1055.7 222.3 1058.6 227.6 1064.7 232.7 1068.7 232.6 1070.1 234 1068.7 235.3 1073.5 237.6 1077.5 239.5 1082.2 242.9 1082.8 244 1082 246.3 1078.9 243.3 1074.3 242.3 1072.4 246.4 1076.3 248.8 1075.9 252.1 1073.8 252.5 1071.3 258 1069.1 258.5 1069 256.5 1069.9 253.1 1071 251.7 1068.7 248 1066.9 244.8 1064.7 244 1062.9 241.3 1059.5 240.1 1057.1 237.5 1053.3 237.1 1049 234.3 1044.1 230.1 1040.4 226.5 1038.5 220.2 1035.9 219.5 1031.7 217.4 1029.4 218.2 1026.5 221.2 1024.4 221.6 1024.9 218.9 1022.1 218.1 1020.6 213.2 1022.3 211.3 1020.8 208.9 1020.9 207.1 1023.1 208.5 1025.6 208.2 1028.3 206 1029.2 207 1031.6 206.8 1032.6 204.3 1036.4 205.1 1038.5 204 1038.8 201.5 1041.9 202.4 1042.4 201.2 1047.3 200.1 1048.6 202.2 1055.9 203.9 Z">
 </path>

/*UAE*/
 <path d="M1296.2 336.7l1.3 5.1-2.8 0 0 4.2 1.1 0.9-2.4 1.3 0.2 2.6-1.3 2.6 0 2.6-1 1.4-16.9-3.2-2.7-6.6-0.3-1.4 0.9-0.4 0.4 1.8 4.2-1 4.6 0.2 3.4 0.2 3.3-4.4 3.7-4.1 3-4 1.3 2.2z" id="AE" name="United Arab Emirates">
 </path>

/*AUSTRIA*/
 <path d="M1070.6 190.8l-0.3 0.8 0.7 2.1-0.2 2.6-2.8 0 1.1 1.4-1.3 4-0.9 1.1-4.4 0.1-2.4 1.5-4.2-0.5-7.3-1.7-1.3-2.1-4.9 1.1-0.5 1.2-3.1-0.9-2.6-0.2-2.3-1.2 0.7-1.5-0.2-1.1 1.4-0.3 2.7 1.7 0.6-1.7 4.4 0.3 3.5-1.1 2.4 0.2 1.7 1.3 0.4-1.1-1-4.1 1.7-0.8 1.6-2.9 3.8 2.1 2.6-2.6 1.7-0.5 4 1.9 2.3-0.3 2.4 1.2z" id="AT" name="Austria">
 </path>

/*BELGIUM*/
 <path d="M1016.5 177.1l-0.4 4.2-1.3 0.2-0.4 3.5-4.4-2.9-2.5 0.5-3.5-2.9-2.4-2.5-2.2-0.1-0.8-2.2 3.9-1.2 3.6 0.5 4.5-1.3 3.1 2.7 2.8 1.5z" id="BE" name="Belgium">
 </path>

/*SINGAPORE*/
 <path class="Malaysia" d="M 1564.3 461.9 1565.7 462.5 1569.2 466.4 1571.7 470.7 1572.3 475 1571.8 477.9 1572.4 480.1 1572.9 483.9 1575 485.7 1577.3 491.4 1577.3 493.5 1573.3 494 1567.8 489.2 1561 484.1 1560.2 480.8 1556.8 476.5 1555.8 471.2 1553.6 467.7 1554 463 1552.6 460.3 1553.5 459.2 1558.3 462 1558.9 465.3 1562.6 464.5 1564.3 461.9 Z">
 </path>
 <path class="Malaysia" d="M 1654.1 475.3 1649.1 474.2 1642.6 474.2 1640.9 481.5 1638.8 483.7 1636.2 492.6 1631.6 494 1626.2 492.2 1623.5 492.8 1620.2 496 1616.6 495.6 1612.9 496.9 1609 493.2 1608 488.9 1612.2 491.1 1616.5 489.9 1617.5 484.5 1619.9 483.3 1626.7 481.9 1630.5 476.8 1633.1 472.8 1635.9 476.1 1637 473.9 1639.7 474.1 1639.8 470 1639.9 466.8 1644 462.4 1646.6 457.4 1648.9 457.3 1652 460.6 1652.4 463.4 1656.2 465.2 1661 467.1 1660.8 469.6 1657 469.9 1658.1 473.1 1654.1 475.3 Z">
 </path>

/*CZECH REPUBLIC*/
 <path d="M1059.7 175.2l2.5 2 3.7 0.5-0.2 1.7 2.8 1.3 0.6-1.6 3.4 0.7 0.7 2 3.7 0.3 2.6 3.1-1.5 0-0.7 1.1-1.1 0.3-0.2 1.4-0.9 0.3-0.1 0.6-1.6 0.6-2.2-0.1-0.6 1.4-2.4-1.2-2.3 0.3-4-1.9-1.7 0.5-2.6 2.6-3.8-2.1-3-2.6-2.6-1.5-0.7-2.7-1-1.8 3.4-1.3 1.7-1.6 3.5-1.2 1.1-1.2 1.3 0.7 2.2-0.6z" id="CZ" name="Czech Republic">
 </path>

/*HUNGARY*/
 <path d="M1096.2 191.9l3 1.7 0.5 1.7-2.9 1.3-1.9 4.2-2.6 4.3-3.9 1.2-3.2-0.3-3.7 1.6-1.8 1-4.3-1.2-4-2.7-1.6-0.8-1.2-2.1-0.8-0.1 1.3-4-1.1-1.4 2.8 0 0.2-2.6 2.7 1.7 1.9 0.6 4.1-0.7 0.3-1.3 1.9-0.2 2.3-0.9 0.6 0.4 2.3-0.8 1-1.5 1.6-0.4 5.5 1.9 1-0.6z" id="HU" name="Hungary">
 </path>

/*SPAIN*/
 <path d="M976.6 223.4l2 2.4 9.5 2.9 1.9-1.4 5.8 2.9 5.9-0.8 0.4 3.7-4.9 4.2-6.6 1.4-0.5 2.1-3.2 3.5-2 5.2 2 3.7-3 2.8-1.2 4.2-4 1.3-3.7 4.9-6.8 0.1-5-0.1-3.4 2.2-2.1 2.4-2.6-0.5-1.9-2.2-1.4-3.6-4.9-1-0.4-2.2 2-2.4 0.8-1.7-1.8-1.9 1.6-4.2-2-3.8 2.3-0.5 0.3-3.1 0.8-0.9 0.3-5 2.4-1.7-1.3-3.2-3.1-0.2-0.9 0.8-3 0-1.2-3.1-2.2 0.9-1.9 1.6 0.5-4.5-2-2.7 7.4-4.6 6.2 1.1 6.9 0 5.4 1.1 4.3-0.4 8.3 0.3z" id="ES" name="Spain">
 </path>

/*NETHERLANDS*/
 <path d="M1016.5 177.1l-2.8-1.5-3.1-2.7-4.5 1.3-3.6-0.5 2.5-1.7 4-9 6.5-2.6 4 0.2 0.9 2.1-0.9 5.6-1.2 2.3-2.9 0 1.1 6.5z" id="NL" name="Netherlands">
 </path>
 <path d="M602 424.6l-0.2 0-0.1-0.5 0.1-0.3-0.1-0.3-0.4-0.1-0.3-0.3 0.1-0.3 1.2 0.6-0.1 0.2 0 0.4-0.2 0.2 0 0.4z" id="BQBO" name="Netherlands">
 </path> 

/*SOUTH KOREA*/
 <path d="M1652.9 259.5l0-0.6 2.5 0.2 0.6-2.8 3.6-0.4 2-0.4 0-1.5 8.3 7.5 3.3 4.2 3.4 7.4-0.5 3.5-4.3 1.2-3.1 2.7-4.6 0.5-2.1-3.5-1.1-4.8-5.3-6.6 3.4-1.1-6.1-5.5z" id="KR" name="Republic of Korea">
 </path>

/*USA*/
 <path class="United States" d="M 623.6 233.8 623.8 231.5 624.9 232.9 623.9 234.7 620.1 235.7 617.6 235.6 613.4 236.7 611.1 237 608 237.3 603 239.2 611.1 238 612.2 239.2 604.3 241.1 601 241.1 601.4 240.3 599.3 242.1 600.7 242.4 598.2 247 592.9 251.9 593 250.2 591.9 249.9 590.7 248.3 590.7 251.8 591.7 252.9 591.1 255.3 588.7 257.8 584.2 262.9 583.8 262.7 586.7 258.3 584.7 255.9 585.7 250.5 583.8 253.3 583.8 257.4 580.6 256.4 583.6 258.4 582.1 264.5 583.5 265 583.5 267.2 582.5 273.6 577.9 278.3 571.8 280.2 567.4 284 564.6 284.4 561.2 286.8 559.9 288.9 553 293.1 549.2 296.2 545.7 300 543.8 304.5 543.8 309 544.4 314.5 545.9 319 545.4 321.8 546.7 329.2 545.7 333.6 545.1 336.1 543.1 340 541.3 340.8 538.7 340 538.3 337.2 536.5 335.7 534.5 330.2 532.9 325.3 532.5 322.8 534.5 318.5 533.7 315 530.6 309.6 528.7 308.6 522.6 311.6 521.7 311.2 519.7 308.2 516.7 306.6 510.3 307.5 505.7 306.7 501.4 307.2 498.9 308.2 499.5 309.9 498.8 312.5 499.6 313.8 498.4 314.6 496.6 313.7 494.3 314.9 490.4 314.7 487.1 311.3 482.2 312.1 478.6 310.6 475.1 311.1 470.1 312.6 464 317.3 457.9 320.1 454.2 323.1 452.3 326 451.3 330.5 450.9 333.5 451.5 335.7 449.3 335.9 445.7 334.5 441.8 332.5 440.9 329.5 440.7 325 438.3 321.4 437.4 317.6 435.8 313.2 432.6 310.6 428.1 310.8 423.3 315.8 419.3 313.9 417 312 416.6 308.4 415.8 305.1 413.4 302.3 411.3 300.2 410 297.9 400.6 297.9 399.8 300.6 395.5 300.6 384.7 300.6 373.8 296.1 366.8 293 367.7 291.7 360.6 292.4 354.3 292.9 354.6 289.7 352.5 286 350.3 285.2 350.4 283.4 347.5 283 346.3 281.3 341.5 280.7 340.6 279.6 341.4 276.1 338.9 269.7 338.4 260.8 339.3 259.3 338 257.2 336.5 251.8 338.3 246.6 337.4 243.1 341.3 237.8 344.1 232.4 345.2 227.5 350.7 221.5 354.7 215.8 358.7 210.1 363 201.6 364.8 196.3 365.2 193.4 366.6 192.1 372.4 194.3 371.4 200.2 373.6 198.5 376.1 193.4 377.7 188.3 391.8 188.3 406.5 188.3 411.3 188.3 426.4 188.3 441.1 188.3 455.9 188.3 470.8 188.3 487.6 188.3 504.6 188.3 514.8 188.3 516.1 185.9 517.8 185.9 516.9 189.3 517.9 190.3 521.2 190.7 525.8 191.7 529.7 193.6 534.1 192.8 539.5 194.5 Z">
 </path>
</svg>